<mxfile host="app.diagrams.net" agent="Mozilla/5.0 (Windows NT 10.0; Win64; x64) AppleWebKit/537.36 (KHTML, like Gecko) Chrome/139.0.0.0 Safari/537.36" version="28.2.5">
  <diagram name="Page-1" id="9EMSqDa24869HwMEbP3A">
    <mxGraphModel dx="1501" dy="791" grid="1" gridSize="10" guides="1" tooltips="1" connect="1" arrows="1" fold="1" page="1" pageScale="1" pageWidth="827" pageHeight="1169" math="0" shadow="1">
      <root>
        <mxCell id="0" />
        <mxCell id="1" parent="0" />
        <mxCell id="-erMYesji34OctEqvvJe-1" value="" style="shape=umlLifeline;perimeter=lifelinePerimeter;whiteSpace=wrap;html=1;container=1;dropTarget=0;collapsible=0;recursiveResize=0;outlineConnect=0;portConstraint=eastwest;newEdgeStyle={&quot;curved&quot;:0,&quot;rounded&quot;:0};participant=umlActor;strokeWidth=3;" parent="1" vertex="1">
          <mxGeometry x="70" y="120" width="20" height="560" as="geometry" />
        </mxCell>
        <mxCell id="-erMYesji34OctEqvvJe-2" value="Create Account" style="shape=process;whiteSpace=wrap;html=1;backgroundOutline=1;fillColor=#f8cecc;strokeColor=#b85450;gradientColor=#ea6b66;shadow=1;sketch=1;curveFitting=1;jiggle=2;glass=0;rounded=0;" parent="1" vertex="1">
          <mxGeometry x="80" y="40" width="240" height="40" as="geometry" />
        </mxCell>
        <mxCell id="-erMYesji34OctEqvvJe-3" value="FrontEnd:Interface" style="shape=umlLifeline;perimeter=lifelinePerimeter;whiteSpace=wrap;html=1;container=1;dropTarget=0;collapsible=0;recursiveResize=0;outlineConnect=0;portConstraint=eastwest;newEdgeStyle={&quot;curved&quot;:0,&quot;rounded&quot;:0};fillColor=#d5e8d4;gradientColor=#97d077;strokeColor=#82b366;strokeWidth=3;" parent="1" vertex="1">
          <mxGeometry x="200" y="120" width="120" height="960" as="geometry" />
        </mxCell>
        <mxCell id="-erMYesji34OctEqvvJe-14" value="" style="html=1;points=[[0,0,0,0,5],[0,1,0,0,-5],[1,0,0,0,5],[1,1,0,0,-5]];perimeter=orthogonalPerimeter;outlineConnect=0;targetShapes=umlLifeline;portConstraint=eastwest;newEdgeStyle={&quot;curved&quot;:0,&quot;rounded&quot;:0};fillColor=#d5e8d4;gradientColor=#97d077;strokeColor=#82b366;" parent="-erMYesji34OctEqvvJe-3" vertex="1">
          <mxGeometry x="55" y="100" width="10" height="800" as="geometry" />
        </mxCell>
        <mxCell id="-erMYesji34OctEqvvJe-20" value="" style="html=1;points=[[0,0,0,0,5],[0,1,0,0,-5],[1,0,0,0,5],[1,1,0,0,-5]];perimeter=orthogonalPerimeter;outlineConnect=0;targetShapes=umlLifeline;portConstraint=eastwest;newEdgeStyle={&quot;curved&quot;:0,&quot;rounded&quot;:0};fillColor=#f5f5f5;gradientColor=#b3b3b3;strokeColor=#666666;" parent="-erMYesji34OctEqvvJe-3" vertex="1">
          <mxGeometry x="60" y="220" width="10" height="40" as="geometry" />
        </mxCell>
        <mxCell id="-erMYesji34OctEqvvJe-21" value="display Form Register" style="html=1;align=left;spacingLeft=2;endArrow=block;rounded=0;edgeStyle=orthogonalEdgeStyle;curved=0;rounded=0;" parent="-erMYesji34OctEqvvJe-3" target="-erMYesji34OctEqvvJe-20" edge="1">
          <mxGeometry relative="1" as="geometry">
            <mxPoint x="65" y="200" as="sourcePoint" />
            <Array as="points">
              <mxPoint x="95" y="230" />
            </Array>
          </mxGeometry>
        </mxCell>
        <mxCell id="-erMYesji34OctEqvvJe-4" value=":CsrfService" style="shape=umlLifeline;perimeter=lifelinePerimeter;whiteSpace=wrap;html=1;container=1;dropTarget=0;collapsible=0;recursiveResize=0;outlineConnect=0;portConstraint=eastwest;newEdgeStyle={&quot;curved&quot;:0,&quot;rounded&quot;:0};strokeWidth=3;fillColor=#dae8fc;gradientColor=#7ea6e0;strokeColor=#6c8ebf;" parent="1" vertex="1">
          <mxGeometry x="599" y="120" width="120" height="440" as="geometry" />
        </mxCell>
        <mxCell id="LOT9wmNylKdDUpqY30Z5-52" value="" style="html=1;points=[[0,0,0,0,5],[0,1,0,0,-5],[1,0,0,0,5],[1,1,0,0,-5]];perimeter=orthogonalPerimeter;outlineConnect=0;targetShapes=umlLifeline;portConstraint=eastwest;newEdgeStyle={&quot;curved&quot;:0,&quot;rounded&quot;:0};fillColor=#dae8fc;gradientColor=#7ea6e0;strokeColor=#6c8ebf;" vertex="1" parent="-erMYesji34OctEqvvJe-4">
          <mxGeometry x="55" y="130" width="10" height="60" as="geometry" />
        </mxCell>
        <mxCell id="LOT9wmNylKdDUpqY30Z5-53" value="generateCsrfToken()" style="html=1;verticalAlign=bottom;endArrow=block;curved=0;rounded=0;entryX=0;entryY=0;entryDx=0;entryDy=5;" edge="1" parent="-erMYesji34OctEqvvJe-4">
          <mxGeometry relative="1" as="geometry">
            <mxPoint x="-134" y="141" as="sourcePoint" />
            <mxPoint x="55" y="141" as="targetPoint" />
          </mxGeometry>
        </mxCell>
        <mxCell id="LOT9wmNylKdDUpqY30Z5-54" value="return csrfToken" style="html=1;verticalAlign=bottom;endArrow=open;dashed=1;endSize=8;curved=0;rounded=0;exitX=0;exitY=1;exitDx=0;exitDy=-5;" edge="1" parent="-erMYesji34OctEqvvJe-4">
          <mxGeometry relative="1" as="geometry">
            <mxPoint x="-134" y="180" as="targetPoint" />
            <mxPoint x="55" y="180" as="sourcePoint" />
          </mxGeometry>
        </mxCell>
        <mxCell id="LOT9wmNylKdDUpqY30Z5-56" value="" style="html=1;points=[[0,0,0,0,5],[0,1,0,0,-5],[1,0,0,0,5],[1,1,0,0,-5]];perimeter=orthogonalPerimeter;outlineConnect=0;targetShapes=umlLifeline;portConstraint=eastwest;newEdgeStyle={&quot;curved&quot;:0,&quot;rounded&quot;:0};fillColor=#dae8fc;gradientColor=#7ea6e0;strokeColor=#6c8ebf;" vertex="1" parent="-erMYesji34OctEqvvJe-4">
          <mxGeometry x="55" y="310" width="10" height="60" as="geometry" />
        </mxCell>
        <mxCell id="LOT9wmNylKdDUpqY30Z5-57" value="verifyCsrfToken(csrfToken)" style="html=1;verticalAlign=bottom;endArrow=block;curved=0;rounded=0;entryX=0;entryY=0;entryDx=0;entryDy=5;" edge="1" parent="-erMYesji34OctEqvvJe-4">
          <mxGeometry relative="1" as="geometry">
            <mxPoint x="-134" y="320" as="sourcePoint" />
            <mxPoint x="55" y="320" as="targetPoint" />
          </mxGeometry>
        </mxCell>
        <mxCell id="LOT9wmNylKdDUpqY30Z5-58" value="return bool" style="html=1;verticalAlign=bottom;endArrow=open;dashed=1;endSize=8;curved=0;rounded=0;exitX=0;exitY=1;exitDx=0;exitDy=-5;" edge="1" parent="-erMYesji34OctEqvvJe-4" source="LOT9wmNylKdDUpqY30Z5-56">
          <mxGeometry relative="1" as="geometry">
            <mxPoint x="-134" y="365" as="targetPoint" />
          </mxGeometry>
        </mxCell>
        <mxCell id="-erMYesji34OctEqvvJe-5" value=":AuthService" style="shape=umlLifeline;perimeter=lifelinePerimeter;whiteSpace=wrap;html=1;container=1;dropTarget=0;collapsible=0;recursiveResize=0;outlineConnect=0;portConstraint=eastwest;newEdgeStyle={&quot;curved&quot;:0,&quot;rounded&quot;:0};strokeWidth=3;fillColor=#dae8fc;gradientColor=#7ea6e0;strokeColor=#6c8ebf;" parent="1" vertex="1">
          <mxGeometry x="799" y="120" width="120" height="960" as="geometry" />
        </mxCell>
        <mxCell id="-erMYesji34OctEqvvJe-30" value="" style="html=1;points=[[0,0,0,0,5],[0,1,0,0,-5],[1,0,0,0,5],[1,1,0,0,-5]];perimeter=orthogonalPerimeter;outlineConnect=0;targetShapes=umlLifeline;portConstraint=eastwest;newEdgeStyle={&quot;curved&quot;:0,&quot;rounded&quot;:0};fillColor=#dae8fc;gradientColor=#7ea6e0;strokeColor=#6c8ebf;" parent="-erMYesji34OctEqvvJe-5" vertex="1">
          <mxGeometry x="55" y="379" width="10" height="500" as="geometry" />
        </mxCell>
        <mxCell id="-erMYesji34OctEqvvJe-36" value="" style="html=1;points=[[0,0,0,0,5],[0,1,0,0,-5],[1,0,0,0,5],[1,1,0,0,-5]];perimeter=orthogonalPerimeter;outlineConnect=0;targetShapes=umlLifeline;portConstraint=eastwest;newEdgeStyle={&quot;curved&quot;:0,&quot;rounded&quot;:0};fillColor=#f5f5f5;gradientColor=#b3b3b3;strokeColor=#666666;" parent="-erMYesji34OctEqvvJe-5" vertex="1">
          <mxGeometry x="60" y="577" width="10" height="40" as="geometry" />
        </mxCell>
        <mxCell id="-erMYesji34OctEqvvJe-37" value="verifExistingUser()" style="html=1;align=left;spacingLeft=2;endArrow=block;rounded=0;edgeStyle=orthogonalEdgeStyle;curved=0;rounded=0;" parent="-erMYesji34OctEqvvJe-5" target="-erMYesji34OctEqvvJe-36" edge="1">
          <mxGeometry relative="1" as="geometry">
            <mxPoint x="65" y="557" as="sourcePoint" />
            <Array as="points">
              <mxPoint x="95" y="587" />
            </Array>
          </mxGeometry>
        </mxCell>
        <mxCell id="-erMYesji34OctEqvvJe-38" value="" style="html=1;points=[[0,0,0,0,5],[0,1,0,0,-5],[1,0,0,0,5],[1,1,0,0,-5]];perimeter=orthogonalPerimeter;outlineConnect=0;targetShapes=umlLifeline;portConstraint=eastwest;newEdgeStyle={&quot;curved&quot;:0,&quot;rounded&quot;:0};fillColor=#f5f5f5;gradientColor=#b3b3b3;strokeColor=#666666;" parent="-erMYesji34OctEqvvJe-5" vertex="1">
          <mxGeometry x="60" y="657" width="10" height="40" as="geometry" />
        </mxCell>
        <mxCell id="-erMYesji34OctEqvvJe-39" value="hashPassword(safePassword)" style="html=1;align=left;spacingLeft=2;endArrow=block;rounded=0;edgeStyle=orthogonalEdgeStyle;curved=0;rounded=0;" parent="-erMYesji34OctEqvvJe-5" target="-erMYesji34OctEqvvJe-38" edge="1">
          <mxGeometry relative="1" as="geometry">
            <mxPoint x="65" y="637" as="sourcePoint" />
            <Array as="points">
              <mxPoint x="95" y="667" />
            </Array>
          </mxGeometry>
        </mxCell>
        <mxCell id="-erMYesji34OctEqvvJe-42" value="" style="html=1;points=[[0,0,0,0,5],[0,1,0,0,-5],[1,0,0,0,5],[1,1,0,0,-5]];perimeter=orthogonalPerimeter;outlineConnect=0;targetShapes=umlLifeline;portConstraint=eastwest;newEdgeStyle={&quot;curved&quot;:0,&quot;rounded&quot;:0};fillColor=#f5f5f5;gradientColor=#b3b3b3;strokeColor=#666666;" parent="-erMYesji34OctEqvvJe-5" vertex="1">
          <mxGeometry x="60" y="439" width="10" height="40" as="geometry" />
        </mxCell>
        <mxCell id="-erMYesji34OctEqvvJe-43" value="Input filter &amp;amp; validation" style="html=1;align=left;spacingLeft=2;endArrow=block;rounded=0;edgeStyle=orthogonalEdgeStyle;curved=0;rounded=0;" parent="-erMYesji34OctEqvvJe-5" target="-erMYesji34OctEqvvJe-42" edge="1">
          <mxGeometry relative="1" as="geometry">
            <mxPoint x="65" y="419" as="sourcePoint" />
            <Array as="points">
              <mxPoint x="95" y="449" />
            </Array>
          </mxGeometry>
        </mxCell>
        <mxCell id="-erMYesji34OctEqvvJe-6" value=":AuthModel" style="shape=umlLifeline;perimeter=lifelinePerimeter;whiteSpace=wrap;html=1;container=1;dropTarget=0;collapsible=0;recursiveResize=0;outlineConnect=0;portConstraint=eastwest;newEdgeStyle={&quot;curved&quot;:0,&quot;rounded&quot;:0};strokeWidth=3;fillColor=#dae8fc;gradientColor=#7ea6e0;strokeColor=#6c8ebf;" parent="1" vertex="1">
          <mxGeometry x="999" y="120" width="120" height="880" as="geometry" />
        </mxCell>
        <mxCell id="-erMYesji34OctEqvvJe-33" value="" style="html=1;points=[[0,0,0,0,5],[0,1,0,0,-5],[1,0,0,0,5],[1,1,0,0,-5]];perimeter=orthogonalPerimeter;outlineConnect=0;targetShapes=umlLifeline;portConstraint=eastwest;newEdgeStyle={&quot;curved&quot;:0,&quot;rounded&quot;:0};fillColor=#dae8fc;gradientColor=#7ea6e0;strokeColor=#6c8ebf;" parent="-erMYesji34OctEqvvJe-6" vertex="1">
          <mxGeometry x="56" y="477" width="10" height="80" as="geometry" />
        </mxCell>
        <mxCell id="-erMYesji34OctEqvvJe-44" value="" style="html=1;points=[[0,0,0,0,5],[0,1,0,0,-5],[1,0,0,0,5],[1,1,0,0,-5]];perimeter=orthogonalPerimeter;outlineConnect=0;targetShapes=umlLifeline;portConstraint=eastwest;newEdgeStyle={&quot;curved&quot;:0,&quot;rounded&quot;:0};fillColor=#dae8fc;gradientColor=#7ea6e0;strokeColor=#6c8ebf;" parent="-erMYesji34OctEqvvJe-6" vertex="1">
          <mxGeometry x="55" y="699" width="10" height="80" as="geometry" />
        </mxCell>
        <mxCell id="-erMYesji34OctEqvvJe-45" value="create(safeEmail, hashPassword, ...)" style="html=1;verticalAlign=bottom;endArrow=block;curved=0;rounded=0;entryX=0;entryY=0;entryDx=0;entryDy=5;" parent="-erMYesji34OctEqvvJe-6" edge="1">
          <mxGeometry relative="1" as="geometry">
            <mxPoint x="-135.99999999999977" y="719" as="sourcePoint" />
            <mxPoint x="55" y="719" as="targetPoint" />
          </mxGeometry>
        </mxCell>
        <mxCell id="-erMYesji34OctEqvvJe-46" value="return User" style="html=1;verticalAlign=bottom;endArrow=open;dashed=1;endSize=8;curved=0;rounded=0;exitX=0;exitY=1;exitDx=0;exitDy=-5;" parent="-erMYesji34OctEqvvJe-6" edge="1">
          <mxGeometry relative="1" as="geometry">
            <mxPoint x="-136" y="759" as="targetPoint" />
            <mxPoint x="55" y="759" as="sourcePoint" />
          </mxGeometry>
        </mxCell>
        <mxCell id="-erMYesji34OctEqvvJe-7" value=":Database" style="shape=umlLifeline;perimeter=lifelinePerimeter;whiteSpace=wrap;html=1;container=1;dropTarget=0;collapsible=0;recursiveResize=0;outlineConnect=0;portConstraint=eastwest;newEdgeStyle={&quot;curved&quot;:0,&quot;rounded&quot;:0};strokeWidth=3;fillColor=#fff2cc;gradientColor=#ffd966;strokeColor=#d6b656;" parent="1" vertex="1">
          <mxGeometry x="1199" y="120" width="120" height="880" as="geometry" />
        </mxCell>
        <mxCell id="fQuVUcjvtSsfq1Hmc-oK-1" value="" style="html=1;points=[[0,0,0,0,5],[0,1,0,0,-5],[1,0,0,0,5],[1,1,0,0,-5]];perimeter=orthogonalPerimeter;outlineConnect=0;targetShapes=umlLifeline;portConstraint=eastwest;newEdgeStyle={&quot;curved&quot;:0,&quot;rounded&quot;:0};fillColor=#fff2cc;gradientColor=#ffd966;strokeColor=#d6b656;" parent="-erMYesji34OctEqvvJe-7" vertex="1">
          <mxGeometry x="55" y="499" width="10" height="40" as="geometry" />
        </mxCell>
        <mxCell id="fQuVUcjvtSsfq1Hmc-oK-4" value="" style="html=1;points=[[0,0,0,0,5],[0,1,0,0,-5],[1,0,0,0,5],[1,1,0,0,-5]];perimeter=orthogonalPerimeter;outlineConnect=0;targetShapes=umlLifeline;portConstraint=eastwest;newEdgeStyle={&quot;curved&quot;:0,&quot;rounded&quot;:0};fillColor=#fff2cc;gradientColor=#ffd966;strokeColor=#d6b656;" parent="-erMYesji34OctEqvvJe-7" vertex="1">
          <mxGeometry x="54" y="719" width="10" height="40" as="geometry" />
        </mxCell>
        <mxCell id="fQuVUcjvtSsfq1Hmc-oK-5" value="INSERT INTO User" style="html=1;verticalAlign=bottom;endArrow=block;curved=0;rounded=0;entryX=0;entryY=0;entryDx=0;entryDy=5;" parent="-erMYesji34OctEqvvJe-7" edge="1">
          <mxGeometry relative="1" as="geometry">
            <mxPoint x="-135" y="728" as="sourcePoint" />
            <mxPoint x="54" y="728" as="targetPoint" />
          </mxGeometry>
        </mxCell>
        <mxCell id="fQuVUcjvtSsfq1Hmc-oK-6" value="return&amp;nbsp;" style="html=1;verticalAlign=bottom;endArrow=open;dashed=1;endSize=8;curved=0;rounded=0;exitX=0;exitY=1;exitDx=0;exitDy=-5;" parent="-erMYesji34OctEqvvJe-7" edge="1">
          <mxGeometry relative="1" as="geometry">
            <mxPoint x="-135" y="749" as="targetPoint" />
            <mxPoint x="54" y="749" as="sourcePoint" />
          </mxGeometry>
        </mxCell>
        <mxCell id="-erMYesji34OctEqvvJe-8" value="" style="shape=cylinder3;whiteSpace=wrap;html=1;boundedLbl=1;backgroundOutline=1;size=15;fillColor=#ffcd28;gradientColor=#ffa500;strokeColor=#d79b00;" parent="1" vertex="1">
          <mxGeometry x="1179" y="90" width="40" height="40" as="geometry" />
        </mxCell>
        <mxCell id="-erMYesji34OctEqvvJe-9" value=":AuthController" style="shape=umlLifeline;perimeter=lifelinePerimeter;whiteSpace=wrap;html=1;container=1;dropTarget=0;collapsible=0;recursiveResize=0;outlineConnect=0;portConstraint=eastwest;newEdgeStyle={&quot;curved&quot;:0,&quot;rounded&quot;:0};strokeWidth=3;fillColor=#dae8fc;gradientColor=#7ea6e0;strokeColor=#6c8ebf;" parent="1" vertex="1">
          <mxGeometry x="400" y="120" width="120" height="930" as="geometry" />
        </mxCell>
        <mxCell id="-erMYesji34OctEqvvJe-15" value="" style="html=1;points=[[0,0,0,0,5],[0,1,0,0,-5],[1,0,0,0,5],[1,1,0,0,-5]];perimeter=orthogonalPerimeter;outlineConnect=0;targetShapes=umlLifeline;portConstraint=eastwest;newEdgeStyle={&quot;curved&quot;:0,&quot;rounded&quot;:0};fillColor=#dae8fc;gradientColor=#7ea6e0;strokeColor=#6c8ebf;" parent="-erMYesji34OctEqvvJe-9" vertex="1">
          <mxGeometry x="55" y="120" width="10" height="80" as="geometry" />
        </mxCell>
        <mxCell id="LOT9wmNylKdDUpqY30Z5-55" value="" style="html=1;points=[[0,0,0,0,5],[0,1,0,0,-5],[1,0,0,0,5],[1,1,0,0,-5]];perimeter=orthogonalPerimeter;outlineConnect=0;targetShapes=umlLifeline;portConstraint=eastwest;newEdgeStyle={&quot;curved&quot;:0,&quot;rounded&quot;:0};fillColor=#dae8fc;gradientColor=#7ea6e0;strokeColor=#6c8ebf;" vertex="1" parent="-erMYesji34OctEqvvJe-9">
          <mxGeometry x="55" y="280" width="10" height="620" as="geometry" />
        </mxCell>
        <mxCell id="-erMYesji34OctEqvvJe-11" value="Clic Button Register" style="html=1;verticalAlign=bottom;endArrow=block;curved=0;rounded=0;" parent="1" target="-erMYesji34OctEqvvJe-14" edge="1">
          <mxGeometry width="80" relative="1" as="geometry">
            <mxPoint x="79.5" y="240" as="sourcePoint" />
            <mxPoint x="258.5" y="240" as="targetPoint" />
          </mxGeometry>
        </mxCell>
        <mxCell id="-erMYesji34OctEqvvJe-16" value="&lt;b&gt;&lt;font style=&quot;color: light-dark(rgb(255, 0, 0), rgb(237, 237, 237));&quot;&gt;POST :&lt;/font&gt;&lt;/b&gt; auth/generateCsrfToken" style="html=1;verticalAlign=bottom;endArrow=open;curved=0;rounded=0;entryX=0;entryY=0;entryDx=0;entryDy=5;endFill=0;" parent="1" edge="1">
          <mxGeometry relative="1" as="geometry">
            <mxPoint x="265" y="249.9999999999999" as="sourcePoint" />
            <mxPoint x="454.9999999999998" y="249.9999999999999" as="targetPoint" />
          </mxGeometry>
        </mxCell>
        <mxCell id="-erMYesji34OctEqvvJe-17" value="return csrfToken" style="html=1;verticalAlign=bottom;endArrow=open;dashed=1;endSize=8;curved=0;rounded=0;exitX=0;exitY=1;exitDx=0;exitDy=-5;" parent="1" edge="1">
          <mxGeometry relative="1" as="geometry">
            <mxPoint x="265" y="310" as="targetPoint" />
            <mxPoint x="455" y="310" as="sourcePoint" />
          </mxGeometry>
        </mxCell>
        <mxCell id="-erMYesji34OctEqvvJe-22" value="Submit registration form" style="html=1;verticalAlign=bottom;endArrow=block;curved=0;rounded=0;" parent="1" edge="1">
          <mxGeometry width="80" relative="1" as="geometry">
            <mxPoint x="79.27777777777737" y="400" as="sourcePoint" />
            <mxPoint x="255" y="400" as="targetPoint" />
          </mxGeometry>
        </mxCell>
        <mxCell id="-erMYesji34OctEqvvJe-24" value="&lt;b&gt;&lt;font style=&quot;color: light-dark(rgb(255, 0, 0), rgb(237, 237, 237));&quot;&gt;POST :&lt;/font&gt;&lt;/b&gt; auth/createAccount" style="html=1;verticalAlign=bottom;endArrow=open;curved=0;rounded=0;endFill=0;" parent="1" edge="1" target="LOT9wmNylKdDUpqY30Z5-55">
          <mxGeometry relative="1" as="geometry">
            <mxPoint x="265" y="420" as="sourcePoint" />
            <mxPoint x="654.0000000000002" y="420" as="targetPoint" />
          </mxGeometry>
        </mxCell>
        <mxCell id="-erMYesji34OctEqvvJe-25" value="return {&quot;message&quot;, &quot;error&quot;}" style="html=1;verticalAlign=bottom;endArrow=open;dashed=1;endSize=8;curved=0;rounded=0;" parent="1" edge="1" source="LOT9wmNylKdDUpqY30Z5-55">
          <mxGeometry relative="1" as="geometry">
            <mxPoint x="265" y="999" as="targetPoint" />
            <mxPoint x="654" y="999" as="sourcePoint" />
          </mxGeometry>
        </mxCell>
        <mxCell id="-erMYesji34OctEqvvJe-31" value="registerService(email, password)" style="html=1;verticalAlign=bottom;endArrow=block;curved=0;rounded=0;entryX=0;entryY=0;entryDx=0;entryDy=5;" parent="1" edge="1" source="LOT9wmNylKdDUpqY30Z5-55">
          <mxGeometry relative="1" as="geometry">
            <mxPoint x="664" y="519" as="sourcePoint" />
            <mxPoint x="854" y="519" as="targetPoint" />
          </mxGeometry>
        </mxCell>
        <mxCell id="-erMYesji34OctEqvvJe-32" value="return {&quot;message&quot;, &quot;error&quot;}" style="html=1;verticalAlign=bottom;endArrow=open;dashed=1;endSize=8;curved=0;rounded=0;exitX=0;exitY=1;exitDx=0;exitDy=-5;" parent="1" edge="1" target="LOT9wmNylKdDUpqY30Z5-55">
          <mxGeometry relative="1" as="geometry">
            <mxPoint x="664" y="979.9999999999993" as="targetPoint" />
            <mxPoint x="854" y="979.9999999999993" as="sourcePoint" />
          </mxGeometry>
        </mxCell>
        <mxCell id="-erMYesji34OctEqvvJe-34" value="getUserByEmail(safeEmail)" style="html=1;verticalAlign=bottom;endArrow=block;curved=0;rounded=0;entryX=0;entryY=0;entryDx=0;entryDy=5;" parent="1" edge="1">
          <mxGeometry relative="1" as="geometry">
            <mxPoint x="864.0000000000002" y="617" as="sourcePoint" />
            <mxPoint x="1055" y="617" as="targetPoint" />
          </mxGeometry>
        </mxCell>
        <mxCell id="-erMYesji34OctEqvvJe-35" value="return User" style="html=1;verticalAlign=bottom;endArrow=open;dashed=1;endSize=8;curved=0;rounded=0;exitX=0;exitY=1;exitDx=0;exitDy=-5;" parent="1" edge="1">
          <mxGeometry relative="1" as="geometry">
            <mxPoint x="864" y="659" as="targetPoint" />
            <mxPoint x="1055" y="659" as="sourcePoint" />
          </mxGeometry>
        </mxCell>
        <mxCell id="fQuVUcjvtSsfq1Hmc-oK-2" value="SELECT User" style="html=1;verticalAlign=bottom;endArrow=block;curved=0;rounded=0;entryX=0;entryY=0;entryDx=0;entryDy=5;" parent="1" edge="1">
          <mxGeometry relative="1" as="geometry">
            <mxPoint x="1065" y="628" as="sourcePoint" />
            <mxPoint x="1254" y="628" as="targetPoint" />
          </mxGeometry>
        </mxCell>
        <mxCell id="fQuVUcjvtSsfq1Hmc-oK-3" value="return User[]" style="html=1;verticalAlign=bottom;endArrow=open;dashed=1;endSize=8;curved=0;rounded=0;exitX=0;exitY=1;exitDx=0;exitDy=-5;" parent="1" edge="1">
          <mxGeometry relative="1" as="geometry">
            <mxPoint x="1065" y="649" as="targetPoint" />
            <mxPoint x="1254" y="649" as="sourcePoint" />
          </mxGeometry>
        </mxCell>
        <mxCell id="fQuVUcjvtSsfq1Hmc-oK-7" value=":EmailService" style="shape=umlLifeline;perimeter=lifelinePerimeter;whiteSpace=wrap;html=1;container=1;dropTarget=0;collapsible=0;recursiveResize=0;outlineConnect=0;portConstraint=eastwest;newEdgeStyle={&quot;curved&quot;:0,&quot;rounded&quot;:0};strokeWidth=3;fillColor=#e6d0de;gradientColor=#d5739d;strokeColor=#996185;" parent="1" vertex="1">
          <mxGeometry x="1400" y="120" width="120" height="960" as="geometry" />
        </mxCell>
        <mxCell id="fQuVUcjvtSsfq1Hmc-oK-15" value="" style="html=1;points=[[0,0,0,0,5],[0,1,0,0,-5],[1,0,0,0,5],[1,1,0,0,-5]];perimeter=orthogonalPerimeter;outlineConnect=0;targetShapes=umlLifeline;portConstraint=eastwest;newEdgeStyle={&quot;curved&quot;:0,&quot;rounded&quot;:0};fillColor=#e6d0de;gradientColor=#d5739d;strokeColor=#996185;" parent="fQuVUcjvtSsfq1Hmc-oK-7" vertex="1">
          <mxGeometry x="55" y="779" width="10" height="80" as="geometry" />
        </mxCell>
        <mxCell id="fQuVUcjvtSsfq1Hmc-oK-16" value="sendVerifEmail(safeEmail)" style="html=1;verticalAlign=bottom;endArrow=block;curved=0;rounded=0;entryX=0;entryY=0;entryDx=0;entryDy=5;" parent="1" edge="1">
          <mxGeometry relative="1" as="geometry">
            <mxPoint x="864.0000000000002" y="919" as="sourcePoint" />
            <mxPoint x="1455" y="919" as="targetPoint" />
          </mxGeometry>
        </mxCell>
        <mxCell id="fQuVUcjvtSsfq1Hmc-oK-17" value="return bool" style="html=1;verticalAlign=bottom;endArrow=open;dashed=1;endSize=8;curved=0;rounded=0;exitX=0;exitY=1;exitDx=0;exitDy=-5;" parent="1" edge="1">
          <mxGeometry relative="1" as="geometry">
            <mxPoint x="864.0000000000002" y="959" as="targetPoint" />
            <mxPoint x="1455" y="959" as="sourcePoint" />
          </mxGeometry>
        </mxCell>
        <mxCell id="LOT9wmNylKdDUpqY30Z5-1" value="Login Account" style="shape=process;whiteSpace=wrap;html=1;backgroundOutline=1;fillColor=#f8cecc;strokeColor=#b85450;gradientColor=#ea6b66;shadow=1;sketch=1;curveFitting=1;jiggle=2;glass=0;rounded=0;" vertex="1" parent="1">
          <mxGeometry x="80" y="1680" width="240" height="40" as="geometry" />
        </mxCell>
        <mxCell id="LOT9wmNylKdDUpqY30Z5-2" value="" style="shape=umlLifeline;perimeter=lifelinePerimeter;whiteSpace=wrap;html=1;container=1;dropTarget=0;collapsible=0;recursiveResize=0;outlineConnect=0;portConstraint=eastwest;newEdgeStyle={&quot;curved&quot;:0,&quot;rounded&quot;:0};participant=umlActor;strokeWidth=3;" vertex="1" parent="1">
          <mxGeometry x="70" y="1760" width="20" height="560" as="geometry" />
        </mxCell>
        <mxCell id="LOT9wmNylKdDUpqY30Z5-3" value="FrontEnd:Interface" style="shape=umlLifeline;perimeter=lifelinePerimeter;whiteSpace=wrap;html=1;container=1;dropTarget=0;collapsible=0;recursiveResize=0;outlineConnect=0;portConstraint=eastwest;newEdgeStyle={&quot;curved&quot;:0,&quot;rounded&quot;:0};fillColor=#d5e8d4;gradientColor=#97d077;strokeColor=#82b366;strokeWidth=3;" vertex="1" parent="1">
          <mxGeometry x="200" y="1760" width="120" height="800" as="geometry" />
        </mxCell>
        <mxCell id="LOT9wmNylKdDUpqY30Z5-4" value="" style="html=1;points=[[0,0,0,0,5],[0,1,0,0,-5],[1,0,0,0,5],[1,1,0,0,-5]];perimeter=orthogonalPerimeter;outlineConnect=0;targetShapes=umlLifeline;portConstraint=eastwest;newEdgeStyle={&quot;curved&quot;:0,&quot;rounded&quot;:0};fillColor=#d5e8d4;gradientColor=#97d077;strokeColor=#82b366;" vertex="1" parent="LOT9wmNylKdDUpqY30Z5-3">
          <mxGeometry x="55" y="100" width="10" height="660" as="geometry" />
        </mxCell>
        <mxCell id="LOT9wmNylKdDUpqY30Z5-5" value="" style="html=1;points=[[0,0,0,0,5],[0,1,0,0,-5],[1,0,0,0,5],[1,1,0,0,-5]];perimeter=orthogonalPerimeter;outlineConnect=0;targetShapes=umlLifeline;portConstraint=eastwest;newEdgeStyle={&quot;curved&quot;:0,&quot;rounded&quot;:0};fillColor=#f5f5f5;gradientColor=#b3b3b3;strokeColor=#666666;" vertex="1" parent="LOT9wmNylKdDUpqY30Z5-3">
          <mxGeometry x="60" y="220" width="10" height="40" as="geometry" />
        </mxCell>
        <mxCell id="LOT9wmNylKdDUpqY30Z5-6" value="display Form Login" style="html=1;align=left;spacingLeft=2;endArrow=block;rounded=0;edgeStyle=orthogonalEdgeStyle;curved=0;rounded=0;" edge="1" parent="LOT9wmNylKdDUpqY30Z5-3" target="LOT9wmNylKdDUpqY30Z5-5">
          <mxGeometry relative="1" as="geometry">
            <mxPoint x="65" y="200" as="sourcePoint" />
            <Array as="points">
              <mxPoint x="95" y="230" />
            </Array>
          </mxGeometry>
        </mxCell>
        <mxCell id="LOT9wmNylKdDUpqY30Z5-7" value="Clic Button Login" style="html=1;verticalAlign=bottom;endArrow=block;curved=0;rounded=0;" edge="1" parent="1">
          <mxGeometry width="80" relative="1" as="geometry">
            <mxPoint x="80.85483870967744" y="1880" as="sourcePoint" />
            <mxPoint x="255" y="1880" as="targetPoint" />
          </mxGeometry>
        </mxCell>
        <mxCell id="LOT9wmNylKdDUpqY30Z5-8" value=":AuthController" style="shape=umlLifeline;perimeter=lifelinePerimeter;whiteSpace=wrap;html=1;container=1;dropTarget=0;collapsible=0;recursiveResize=0;outlineConnect=0;portConstraint=eastwest;newEdgeStyle={&quot;curved&quot;:0,&quot;rounded&quot;:0};strokeWidth=3;fillColor=#dae8fc;gradientColor=#7ea6e0;strokeColor=#6c8ebf;" vertex="1" parent="1">
          <mxGeometry x="400" y="1760" width="120" height="800" as="geometry" />
        </mxCell>
        <mxCell id="LOT9wmNylKdDUpqY30Z5-9" value="" style="html=1;points=[[0,0,0,0,5],[0,1,0,0,-5],[1,0,0,0,5],[1,1,0,0,-5]];perimeter=orthogonalPerimeter;outlineConnect=0;targetShapes=umlLifeline;portConstraint=eastwest;newEdgeStyle={&quot;curved&quot;:0,&quot;rounded&quot;:0};fillColor=#dae8fc;gradientColor=#7ea6e0;strokeColor=#6c8ebf;" vertex="1" parent="LOT9wmNylKdDUpqY30Z5-8">
          <mxGeometry x="55" y="120" width="10" height="80" as="geometry" />
        </mxCell>
        <mxCell id="LOT9wmNylKdDUpqY30Z5-15" value="" style="html=1;points=[[0,0,0,0,5],[0,1,0,0,-5],[1,0,0,0,5],[1,1,0,0,-5]];perimeter=orthogonalPerimeter;outlineConnect=0;targetShapes=umlLifeline;portConstraint=eastwest;newEdgeStyle={&quot;curved&quot;:0,&quot;rounded&quot;:0};fillColor=#dae8fc;gradientColor=#7ea6e0;strokeColor=#6c8ebf;" vertex="1" parent="LOT9wmNylKdDUpqY30Z5-8">
          <mxGeometry x="55" y="280" width="10" height="480" as="geometry" />
        </mxCell>
        <mxCell id="LOT9wmNylKdDUpqY30Z5-16" value="&lt;b&gt;&lt;font style=&quot;color: light-dark(rgb(255, 0, 0), rgb(237, 237, 237));&quot;&gt;POST :&lt;/font&gt;&lt;/b&gt; auth/login" style="html=1;verticalAlign=bottom;endArrow=open;curved=0;rounded=0;endFill=0;" edge="1" parent="LOT9wmNylKdDUpqY30Z5-8">
          <mxGeometry relative="1" as="geometry">
            <mxPoint x="-135" y="300" as="sourcePoint" />
            <mxPoint x="55" y="300" as="targetPoint" />
          </mxGeometry>
        </mxCell>
        <mxCell id="LOT9wmNylKdDUpqY30Z5-17" value="return {&quot;authToken&quot;, &quot;message&quot;}" style="html=1;verticalAlign=bottom;endArrow=open;dashed=1;endSize=8;curved=0;rounded=0;" edge="1" parent="LOT9wmNylKdDUpqY30Z5-8">
          <mxGeometry relative="1" as="geometry">
            <mxPoint x="-135" y="740" as="targetPoint" />
            <mxPoint x="55" y="740" as="sourcePoint" />
          </mxGeometry>
        </mxCell>
        <mxCell id="LOT9wmNylKdDUpqY30Z5-10" value="&lt;b&gt;&lt;font style=&quot;color: light-dark(rgb(255, 0, 0), rgb(237, 237, 237));&quot;&gt;POST :&lt;/font&gt;&lt;/b&gt; auth/generateCsrfToken" style="html=1;verticalAlign=bottom;endArrow=open;curved=0;rounded=0;endFill=0;" edge="1" parent="1">
          <mxGeometry relative="1" as="geometry">
            <mxPoint x="265" y="1890" as="sourcePoint" />
            <mxPoint x="455" y="1890" as="targetPoint" />
          </mxGeometry>
        </mxCell>
        <mxCell id="LOT9wmNylKdDUpqY30Z5-11" value="return csrfToken" style="html=1;verticalAlign=bottom;endArrow=open;dashed=1;endSize=8;curved=0;rounded=0;" edge="1" parent="1">
          <mxGeometry relative="1" as="geometry">
            <mxPoint x="265" y="1948" as="targetPoint" />
            <mxPoint x="455" y="1948" as="sourcePoint" />
          </mxGeometry>
        </mxCell>
        <mxCell id="LOT9wmNylKdDUpqY30Z5-12" value="Submit login Form" style="html=1;verticalAlign=bottom;endArrow=block;curved=0;rounded=0;" edge="1" parent="1" source="LOT9wmNylKdDUpqY30Z5-2" target="LOT9wmNylKdDUpqY30Z5-4">
          <mxGeometry width="80" relative="1" as="geometry">
            <mxPoint x="160" y="2080" as="sourcePoint" />
            <mxPoint x="335" y="2080" as="targetPoint" />
          </mxGeometry>
        </mxCell>
        <mxCell id="LOT9wmNylKdDUpqY30Z5-13" value=":CsrfService" style="shape=umlLifeline;perimeter=lifelinePerimeter;whiteSpace=wrap;html=1;container=1;dropTarget=0;collapsible=0;recursiveResize=0;outlineConnect=0;portConstraint=eastwest;newEdgeStyle={&quot;curved&quot;:0,&quot;rounded&quot;:0};strokeWidth=3;fillColor=#dae8fc;gradientColor=#7ea6e0;strokeColor=#6c8ebf;" vertex="1" parent="1">
          <mxGeometry x="599" y="1760" width="120" height="440" as="geometry" />
        </mxCell>
        <mxCell id="LOT9wmNylKdDUpqY30Z5-18" value="" style="html=1;points=[[0,0,0,0,5],[0,1,0,0,-5],[1,0,0,0,5],[1,1,0,0,-5]];perimeter=orthogonalPerimeter;outlineConnect=0;targetShapes=umlLifeline;portConstraint=eastwest;newEdgeStyle={&quot;curved&quot;:0,&quot;rounded&quot;:0};fillColor=#dae8fc;gradientColor=#7ea6e0;strokeColor=#6c8ebf;" vertex="1" parent="LOT9wmNylKdDUpqY30Z5-13">
          <mxGeometry x="55" y="310" width="10" height="60" as="geometry" />
        </mxCell>
        <mxCell id="LOT9wmNylKdDUpqY30Z5-21" value="" style="html=1;points=[[0,0,0,0,5],[0,1,0,0,-5],[1,0,0,0,5],[1,1,0,0,-5]];perimeter=orthogonalPerimeter;outlineConnect=0;targetShapes=umlLifeline;portConstraint=eastwest;newEdgeStyle={&quot;curved&quot;:0,&quot;rounded&quot;:0};fillColor=#dae8fc;gradientColor=#7ea6e0;strokeColor=#6c8ebf;" vertex="1" parent="LOT9wmNylKdDUpqY30Z5-13">
          <mxGeometry x="55" y="130" width="10" height="60" as="geometry" />
        </mxCell>
        <mxCell id="LOT9wmNylKdDUpqY30Z5-22" value="generateCsrfToken()" style="html=1;verticalAlign=bottom;endArrow=block;curved=0;rounded=0;entryX=0;entryY=0;entryDx=0;entryDy=5;" edge="1" parent="LOT9wmNylKdDUpqY30Z5-13">
          <mxGeometry relative="1" as="geometry">
            <mxPoint x="-134" y="141" as="sourcePoint" />
            <mxPoint x="55" y="141" as="targetPoint" />
          </mxGeometry>
        </mxCell>
        <mxCell id="LOT9wmNylKdDUpqY30Z5-23" value="return csrfToken" style="html=1;verticalAlign=bottom;endArrow=open;dashed=1;endSize=8;curved=0;rounded=0;exitX=0;exitY=1;exitDx=0;exitDy=-5;" edge="1" parent="LOT9wmNylKdDUpqY30Z5-13">
          <mxGeometry relative="1" as="geometry">
            <mxPoint x="-134" y="180" as="targetPoint" />
            <mxPoint x="55" y="180" as="sourcePoint" />
          </mxGeometry>
        </mxCell>
        <mxCell id="LOT9wmNylKdDUpqY30Z5-19" value="verifyCsrfToken(csrfToken)" style="html=1;verticalAlign=bottom;endArrow=block;curved=0;rounded=0;entryX=0;entryY=0;entryDx=0;entryDy=5;" edge="1" parent="1">
          <mxGeometry relative="1" as="geometry">
            <mxPoint x="465" y="2080" as="sourcePoint" />
            <mxPoint x="654" y="2080" as="targetPoint" />
          </mxGeometry>
        </mxCell>
        <mxCell id="LOT9wmNylKdDUpqY30Z5-20" value="return bool" style="html=1;verticalAlign=bottom;endArrow=open;dashed=1;endSize=8;curved=0;rounded=0;exitX=0;exitY=1;exitDx=0;exitDy=-5;" edge="1" source="LOT9wmNylKdDUpqY30Z5-18" parent="1" target="LOT9wmNylKdDUpqY30Z5-15">
          <mxGeometry relative="1" as="geometry">
            <mxPoint x="584" y="2155" as="targetPoint" />
          </mxGeometry>
        </mxCell>
        <mxCell id="LOT9wmNylKdDUpqY30Z5-24" value=":AuthService" style="shape=umlLifeline;perimeter=lifelinePerimeter;whiteSpace=wrap;html=1;container=1;dropTarget=0;collapsible=0;recursiveResize=0;outlineConnect=0;portConstraint=eastwest;newEdgeStyle={&quot;curved&quot;:0,&quot;rounded&quot;:0};strokeWidth=3;fillColor=#dae8fc;gradientColor=#7ea6e0;strokeColor=#6c8ebf;" vertex="1" parent="1">
          <mxGeometry x="799" y="1760" width="120" height="800" as="geometry" />
        </mxCell>
        <mxCell id="LOT9wmNylKdDUpqY30Z5-25" value="" style="html=1;points=[[0,0,0,0,5],[0,1,0,0,-5],[1,0,0,0,5],[1,1,0,0,-5]];perimeter=orthogonalPerimeter;outlineConnect=0;targetShapes=umlLifeline;portConstraint=eastwest;newEdgeStyle={&quot;curved&quot;:0,&quot;rounded&quot;:0};fillColor=#dae8fc;gradientColor=#7ea6e0;strokeColor=#6c8ebf;" vertex="1" parent="LOT9wmNylKdDUpqY30Z5-24">
          <mxGeometry x="55" y="380" width="10" height="380" as="geometry" />
        </mxCell>
        <mxCell id="LOT9wmNylKdDUpqY30Z5-26" value="" style="html=1;points=[[0,0,0,0,5],[0,1,0,0,-5],[1,0,0,0,5],[1,1,0,0,-5]];perimeter=orthogonalPerimeter;outlineConnect=0;targetShapes=umlLifeline;portConstraint=eastwest;newEdgeStyle={&quot;curved&quot;:0,&quot;rounded&quot;:0};fillColor=#f5f5f5;gradientColor=#b3b3b3;strokeColor=#666666;" vertex="1" parent="LOT9wmNylKdDUpqY30Z5-24">
          <mxGeometry x="60" y="580" width="10" height="40" as="geometry" />
        </mxCell>
        <mxCell id="LOT9wmNylKdDUpqY30Z5-27" value="verifPassword&lt;div&gt;(password, hashPassword)&lt;/div&gt;" style="html=1;align=left;spacingLeft=2;endArrow=block;rounded=0;edgeStyle=orthogonalEdgeStyle;curved=0;rounded=0;" edge="1" parent="LOT9wmNylKdDUpqY30Z5-24" target="LOT9wmNylKdDUpqY30Z5-26">
          <mxGeometry x="0.0053" relative="1" as="geometry">
            <mxPoint x="65" y="560" as="sourcePoint" />
            <Array as="points">
              <mxPoint x="95" y="590" />
            </Array>
            <mxPoint as="offset" />
          </mxGeometry>
        </mxCell>
        <mxCell id="LOT9wmNylKdDUpqY30Z5-30" value="" style="html=1;points=[[0,0,0,0,5],[0,1,0,0,-5],[1,0,0,0,5],[1,1,0,0,-5]];perimeter=orthogonalPerimeter;outlineConnect=0;targetShapes=umlLifeline;portConstraint=eastwest;newEdgeStyle={&quot;curved&quot;:0,&quot;rounded&quot;:0};fillColor=#f5f5f5;gradientColor=#b3b3b3;strokeColor=#666666;" vertex="1" parent="LOT9wmNylKdDUpqY30Z5-24">
          <mxGeometry x="60" y="440" width="10" height="40" as="geometry" />
        </mxCell>
        <mxCell id="LOT9wmNylKdDUpqY30Z5-31" value="Input filter &amp;amp; validation" style="html=1;align=left;spacingLeft=2;endArrow=block;rounded=0;edgeStyle=orthogonalEdgeStyle;curved=0;rounded=0;" edge="1" parent="LOT9wmNylKdDUpqY30Z5-24" target="LOT9wmNylKdDUpqY30Z5-30">
          <mxGeometry relative="1" as="geometry">
            <mxPoint x="65" y="420" as="sourcePoint" />
            <Array as="points">
              <mxPoint x="95" y="450" />
            </Array>
          </mxGeometry>
        </mxCell>
        <mxCell id="LOT9wmNylKdDUpqY30Z5-49" value="" style="html=1;points=[[0,0,0,0,5],[0,1,0,0,-5],[1,0,0,0,5],[1,1,0,0,-5]];perimeter=orthogonalPerimeter;outlineConnect=0;targetShapes=umlLifeline;portConstraint=eastwest;newEdgeStyle={&quot;curved&quot;:0,&quot;rounded&quot;:0};fillColor=#f5f5f5;gradientColor=#b3b3b3;strokeColor=#666666;" vertex="1" parent="LOT9wmNylKdDUpqY30Z5-24">
          <mxGeometry x="60" y="660" width="10" height="40" as="geometry" />
        </mxCell>
        <mxCell id="LOT9wmNylKdDUpqY30Z5-50" value="generateAuthToken" style="html=1;align=left;spacingLeft=2;endArrow=block;rounded=0;edgeStyle=orthogonalEdgeStyle;curved=0;rounded=0;" edge="1" target="LOT9wmNylKdDUpqY30Z5-49" parent="LOT9wmNylKdDUpqY30Z5-24">
          <mxGeometry relative="1" as="geometry">
            <mxPoint x="65" y="640" as="sourcePoint" />
            <Array as="points">
              <mxPoint x="95" y="670" />
            </Array>
          </mxGeometry>
        </mxCell>
        <mxCell id="LOT9wmNylKdDUpqY30Z5-32" value="login(email, password)" style="html=1;verticalAlign=bottom;endArrow=block;curved=0;rounded=0;" edge="1" parent="1">
          <mxGeometry relative="1" as="geometry">
            <mxPoint x="465" y="2160" as="sourcePoint" />
            <mxPoint x="854" y="2160" as="targetPoint" />
          </mxGeometry>
        </mxCell>
        <mxCell id="LOT9wmNylKdDUpqY30Z5-33" value=":UserRepository" style="shape=umlLifeline;perimeter=lifelinePerimeter;whiteSpace=wrap;html=1;container=1;dropTarget=0;collapsible=0;recursiveResize=0;outlineConnect=0;portConstraint=eastwest;newEdgeStyle={&quot;curved&quot;:0,&quot;rounded&quot;:0};strokeWidth=3;fillColor=#dae8fc;gradientColor=#7ea6e0;strokeColor=#6c8ebf;" vertex="1" parent="1">
          <mxGeometry x="999" y="1760" width="120" height="600" as="geometry" />
        </mxCell>
        <mxCell id="LOT9wmNylKdDUpqY30Z5-34" value="" style="html=1;points=[[0,0,0,0,5],[0,1,0,0,-5],[1,0,0,0,5],[1,1,0,0,-5]];perimeter=orthogonalPerimeter;outlineConnect=0;targetShapes=umlLifeline;portConstraint=eastwest;newEdgeStyle={&quot;curved&quot;:0,&quot;rounded&quot;:0};fillColor=#dae8fc;gradientColor=#7ea6e0;strokeColor=#6c8ebf;" vertex="1" parent="LOT9wmNylKdDUpqY30Z5-33">
          <mxGeometry x="55" y="480" width="10" height="80" as="geometry" />
        </mxCell>
        <mxCell id="LOT9wmNylKdDUpqY30Z5-38" value="findByEmail(safeEmail)" style="html=1;verticalAlign=bottom;endArrow=block;curved=0;rounded=0;" edge="1" parent="1">
          <mxGeometry relative="1" as="geometry">
            <mxPoint x="864.0000000000002" y="2260" as="sourcePoint" />
            <mxPoint x="1055" y="2260" as="targetPoint" />
          </mxGeometry>
        </mxCell>
        <mxCell id="LOT9wmNylKdDUpqY30Z5-39" value="return User" style="html=1;verticalAlign=bottom;endArrow=open;dashed=1;endSize=8;curved=0;rounded=0;" edge="1" parent="1" source="LOT9wmNylKdDUpqY30Z5-34">
          <mxGeometry relative="1" as="geometry">
            <mxPoint x="864" y="2299" as="targetPoint" />
            <mxPoint x="1055" y="2299" as="sourcePoint" />
          </mxGeometry>
        </mxCell>
        <mxCell id="LOT9wmNylKdDUpqY30Z5-40" value=":Database" style="shape=umlLifeline;perimeter=lifelinePerimeter;whiteSpace=wrap;html=1;container=1;dropTarget=0;collapsible=0;recursiveResize=0;outlineConnect=0;portConstraint=eastwest;newEdgeStyle={&quot;curved&quot;:0,&quot;rounded&quot;:0};strokeWidth=3;fillColor=#fff2cc;gradientColor=#ffd966;strokeColor=#d6b656;" vertex="1" parent="1">
          <mxGeometry x="1199" y="1760" width="120" height="600" as="geometry" />
        </mxCell>
        <mxCell id="LOT9wmNylKdDUpqY30Z5-46" value="" style="html=1;points=[[0,0,0,0,5],[0,1,0,0,-5],[1,0,0,0,5],[1,1,0,0,-5]];perimeter=orthogonalPerimeter;outlineConnect=0;targetShapes=umlLifeline;portConstraint=eastwest;newEdgeStyle={&quot;curved&quot;:0,&quot;rounded&quot;:0};fillColor=#fff2cc;gradientColor=#ffd966;strokeColor=#d6b656;" vertex="1" parent="LOT9wmNylKdDUpqY30Z5-40">
          <mxGeometry x="54" y="500" width="10" height="40" as="geometry" />
        </mxCell>
        <mxCell id="LOT9wmNylKdDUpqY30Z5-47" value="SELECT User" style="html=1;verticalAlign=bottom;endArrow=block;curved=0;rounded=0;entryX=0;entryY=0;entryDx=0;entryDy=5;" edge="1" parent="LOT9wmNylKdDUpqY30Z5-40">
          <mxGeometry relative="1" as="geometry">
            <mxPoint x="-135" y="509" as="sourcePoint" />
            <mxPoint x="54" y="509" as="targetPoint" />
          </mxGeometry>
        </mxCell>
        <mxCell id="LOT9wmNylKdDUpqY30Z5-48" value="return User" style="html=1;verticalAlign=bottom;endArrow=open;dashed=1;endSize=8;curved=0;rounded=0;exitX=0;exitY=1;exitDx=0;exitDy=-5;" edge="1" parent="LOT9wmNylKdDUpqY30Z5-40">
          <mxGeometry relative="1" as="geometry">
            <mxPoint x="-135" y="530" as="targetPoint" />
            <mxPoint x="54" y="530" as="sourcePoint" />
          </mxGeometry>
        </mxCell>
        <mxCell id="LOT9wmNylKdDUpqY30Z5-45" value="" style="shape=cylinder3;whiteSpace=wrap;html=1;boundedLbl=1;backgroundOutline=1;size=15;fillColor=#ffcd28;gradientColor=#ffa500;strokeColor=#d79b00;" vertex="1" parent="1">
          <mxGeometry x="1179" y="1730" width="40" height="40" as="geometry" />
        </mxCell>
        <mxCell id="LOT9wmNylKdDUpqY30Z5-51" value="return authToken" style="html=1;verticalAlign=bottom;endArrow=open;dashed=1;endSize=8;curved=0;rounded=0;" edge="1" parent="1">
          <mxGeometry relative="1" as="geometry">
            <mxPoint x="465" y="2480" as="targetPoint" />
            <mxPoint x="854.0000000000002" y="2480" as="sourcePoint" />
          </mxGeometry>
        </mxCell>
      </root>
    </mxGraphModel>
  </diagram>
</mxfile>
